<?xml version="1.0" standalone="no"?>
<!DOCTYPE svg PUBLIC "-//W3C//DTD SVG 20010904//EN"
 "http://www.w3.org/TR/2001/REC-SVG-20010904/DTD/svg10.dtd">
<svg version="1.0" xmlns="http://www.w3.org/2000/svg"
 width="2063.000000pt" height="419.000000pt" viewBox="0 0 2063.000000 419.000000"
 preserveAspectRatio="xMidYMid meet">

<g transform="translate(0.000000,419.000000) scale(0.100000,-0.100000)"
fill="#000000" stroke="none">
<path d="M1140 3560 c-550 -64 -819 -351 -797 -850 11 -228 55 -329 217 -491
126 -126 215 -187 548 -373 134 -75 278 -159 320 -188 144 -97 221 -195 236
-299 9 -61 -16 -182 -49 -230 -85 -130 -344 -141 -461 -21 -53 55 -64 103 -64
289 l0 163 -386 0 -387 0 6 -192 c4 -151 9 -210 26 -271 67 -254 249 -433 527
-520 155 -49 251 -61 484 -61 238 0 334 13 494 65 263 85 435 257 496 495 49
190 47 480 -5 627 -69 198 -269 383 -620 574 -72 38 -186 100 -255 137 -250
135 -357 223 -385 318 -32 108 -9 218 59 283 49 47 103 66 190 67 91 0 144
-19 198 -73 58 -58 68 -92 68 -241 l0 -118 361 0 362 0 -6 168 c-3 96 -12 193
-21 228 -67 268 -276 437 -621 499 -105 19 -424 28 -535 15z"/>
<path d="M19151 3550 c-448 -37 -728 -227 -820 -558 -39 -141 -42 -233 -38
-1007 4 -836 2 -818 82 -980 90 -184 234 -300 465 -373 154 -48 224 -57 465
-57 246 0 312 9 475 62 215 70 369 191 448 353 83 168 92 249 92 813 l0 427
-505 0 -505 0 0 -210 0 -210 146 0 145 0 -3 -272 c-3 -259 -4 -275 -25 -314
-26 -49 -80 -98 -131 -120 -20 -9 -71 -18 -112 -21 -138 -10 -240 38 -295 138
l-30 54 0 775 0 775 34 69 c50 103 128 146 262 146 96 0 163 -23 213 -74 62
-61 76 -112 76 -268 l0 -128 361 0 361 0 -5 178 c-5 193 -15 248 -70 366 -126
276 -413 421 -862 439 -66 3 -167 1 -224 -3z"/>
<path d="M10400 3539 c-123 -16 -263 -58 -369 -110 -140 -69 -239 -164 -299
-289 -71 -145 -101 -322 -82 -486 21 -191 72 -297 210 -435 115 -115 241 -201
545 -369 268 -149 371 -216 445 -290 79 -79 105 -135 105 -230 0 -107 -20
-166 -75 -220 -53 -54 -112 -74 -210 -73 -130 1 -214 46 -256 136 -22 48 -24
63 -24 220 l0 167 -381 0 -381 0 5 -197 c3 -166 8 -210 26 -273 37 -125 85
-205 181 -301 73 -74 100 -93 190 -138 177 -87 359 -123 625 -123 267 0 448
36 625 124 223 111 348 293 379 553 14 113 14 290 1 375 -26 161 -95 287 -225
408 -123 114 -266 206 -615 392 -253 136 -349 204 -408 288 -36 53 -37 57 -37
146 0 105 19 153 81 204 49 40 107 55 202 51 103 -5 160 -38 206 -119 29 -51
31 -62 34 -182 l4 -128 350 0 350 0 -4 183 c-4 170 -6 188 -34 267 -17 47 -47
112 -68 143 -104 156 -303 262 -568 301 -114 17 -413 20 -528 5z"/>
<path d="M3376 3453 c-8 -40 -430 -2319 -476 -2573 -22 -118 -42 -225 -45
-238 l-5 -22 387 2 387 3 196 1300 c108 715 198 1306 201 1313 2 7 28 -146 56
-340 206 -1393 333 -2260 333 -2268 0 -6 136 -10 385 -10 l385 0 -5 23 c-2 12
-23 123 -45 247 -22 124 -49 270 -60 325 -11 55 -56 298 -100 540 -44 242
-107 584 -140 760 -33 176 -84 455 -115 620 -30 165 -57 310 -60 323 l-5 22
-634 0 -634 0 -6 -27z"/>
<path d="M5810 3413 c0 -38 -14 -673 -30 -1413 -16 -740 -30 -1353 -30 -1362
0 -17 23 -18 354 -18 l354 0 6 31 c3 17 6 201 6 408 0 741 13 2162 20 2154 4
-4 21 -84 38 -178 17 -93 67 -366 112 -605 44 -239 103 -556 131 -705 28 -148
68 -367 90 -485 22 -118 57 -305 77 -415 l37 -200 362 -3 363 -2 5 22 c2 13
39 207 80 433 75 404 119 641 194 1045 21 113 76 408 122 655 l84 450 6 -155
c4 -85 10 -668 14 -1295 3 -627 9 -1143 11 -1147 3 -5 165 -8 360 -8 l354 0
-6 238 c-4 130 -18 772 -33 1427 l-26 1190 -582 3 -581 2 -6 -27 c-9 -43 -336
-2072 -343 -2126 -3 -26 -9 -49 -12 -51 -4 -3 -82 467 -175 1042 -93 576 -173
1073 -178 1105 l-10 57 -584 0 -584 0 0 -67z"/>
<path d="M12340 2366 c0 -1213 0 -1211 57 -1355 78 -198 224 -329 455 -405
160 -54 294 -69 543 -63 226 6 319 20 465 72 216 78 367 226 434 425 13 41 30
104 35 140 7 43 11 448 11 1183 l0 1117 -360 0 -360 0 -2 -1122 -3 -1123 -22
-41 c-86 -160 -325 -195 -454 -65 -84 83 -79 6 -79 1253 l0 1098 -360 0 -360
0 0 -1114z"/>
<path d="M15140 2065 l0 -1415 351 0 351 0 -6 212 c-10 330 -38 2103 -34 2123
1 10 84 -247 182 -571 99 -324 250 -821 336 -1104 87 -283 167 -548 179 -587
l22 -73 509 0 510 0 0 1415 0 1415 -356 0 -355 0 6 -222 c10 -368 36 -2050 32
-2054 -2 -2 -17 44 -34 104 -17 59 -166 570 -332 1135 -165 565 -301 1030
-301 1032 0 3 -238 5 -530 5 l-530 0 0 -1415z"/>
</g>
</svg>
